<svg width="283" height="399" viewBox="0 0 283 399" fill="none" xmlns="http://www.w3.org/2000/svg">
<path d="M282.262 398.224H0.689331V0H282.262V398.224Z" fill="#28282D"/>
<path d="M47.846 357.732V347.055C48.677 346.975 49.4829 346.935 50.2638 346.935C51.315 346.935 52.156 347.18 52.7867 347.671C53.4274 348.161 53.7478 348.902 53.7478 349.893C53.7478 350.874 53.3123 351.685 52.4413 352.326C51.5803 352.957 50.5491 353.272 49.3478 353.272C49.2977 353.272 49.2426 353.272 49.1826 353.272V352.776C49.2226 352.776 49.2577 352.776 49.2877 352.776C50.2788 352.776 51.1398 352.516 51.8706 351.995C52.6015 351.475 52.9669 350.799 52.9669 349.968C52.9669 349.127 52.7116 348.522 52.201 348.151C51.6904 347.771 51.0047 347.58 50.1437 347.58C49.6932 347.58 49.1676 347.6 48.5669 347.641V357.732H47.846ZM56.5719 357.732V347.04C57.5229 346.97 58.3189 346.935 58.9596 346.935C59.9808 346.935 60.8217 347.2 61.4825 347.731C62.1432 348.251 62.4736 348.992 62.4736 349.953C62.4736 350.604 62.2834 351.21 61.903 351.77C61.5225 352.331 61.097 352.776 60.6265 353.107C60.9969 353.617 61.4524 354.228 61.9931 354.939C62.5437 355.64 62.8991 356.08 63.0593 356.26C63.67 356.911 64.3608 357.282 65.1317 357.372L65.1166 357.852C64.5059 357.842 64.0104 357.752 63.6299 357.582C63.2495 357.402 62.8841 357.131 62.5337 356.771C62.1933 356.411 61.3373 355.289 59.9657 353.407C58.9846 353.407 58.0936 353.377 57.2927 353.317V357.732H56.5719ZM59.5302 352.806C59.9707 352.806 60.4413 352.516 60.9419 351.935C61.4424 351.355 61.6927 350.684 61.6927 349.923C61.6927 349.152 61.4324 348.572 60.9118 348.181C60.4012 347.781 59.7205 347.58 58.8695 347.58C58.419 347.58 57.8934 347.6 57.2927 347.641V352.731C58.0936 352.781 58.8394 352.806 59.5302 352.806ZM67.3122 356.305C66.3211 355.234 65.8255 353.918 65.8255 352.356C65.8255 350.794 66.3211 349.483 67.3122 348.421C68.3133 347.35 69.5748 346.815 71.0965 346.815C72.6183 346.815 73.8797 347.35 74.8809 348.421C75.882 349.483 76.3826 350.794 76.3826 352.356C76.3826 353.918 75.882 355.234 74.8809 356.305C73.8797 357.377 72.6183 357.912 71.0965 357.912C69.5748 357.912 68.3133 357.377 67.3122 356.305ZM67.8528 348.887C67.0219 349.818 66.6064 350.974 66.6064 352.356C66.6064 353.737 67.0219 354.899 67.8528 355.84C68.6938 356.781 69.775 357.252 71.0965 357.252C72.4281 357.252 73.5093 356.781 74.3402 355.84C75.1812 354.899 75.6017 353.737 75.6017 352.356C75.6017 350.974 75.1812 349.818 74.3402 348.887C73.5093 347.946 72.4281 347.475 71.0965 347.475C69.765 347.475 68.6838 347.946 67.8528 348.887ZM79.7136 356.531V346.995H80.4344V356.05C80.4344 357.392 80.1541 358.463 79.5934 359.264C79.3131 359.674 79.0278 360.015 78.7375 360.285C78.4471 360.565 78.0917 360.856 77.6712 361.156L77.3559 360.69C78.9277 359.539 79.7136 358.153 79.7136 356.531ZM84.3918 357.732V346.995H89.3775V347.625H85.1126V351.575H88.972V352.191H85.1126V357.101H89.5427V357.732H84.3918ZM97.5041 357.912C95.9424 357.912 94.6008 357.382 93.4795 356.32C92.3583 355.249 91.7976 353.933 91.7976 352.371C91.7976 350.799 92.2882 349.483 93.2693 348.421C94.2504 347.35 95.5069 346.815 97.0386 346.815C98.24 346.815 99.4564 347.015 100.688 347.415L100.493 348.016C99.2912 347.656 98.1399 347.475 97.0386 347.475C95.7271 347.475 94.6559 347.946 93.8249 348.887C92.994 349.828 92.5785 350.979 92.5785 352.341C92.5785 353.702 93.0591 354.864 94.0202 355.825C94.9913 356.776 96.1526 357.252 97.5041 357.252C98.6855 357.252 99.7067 357.071 100.568 356.711L100.793 357.221C100.412 357.442 99.9119 357.612 99.2912 357.732C98.6805 357.852 98.0848 357.912 97.5041 357.912ZM105.6 347.625H101.966V346.995H109.955V347.625H106.321V357.732H105.6V347.625ZM116.911 347.941C116.18 347.63 115.454 347.475 114.733 347.475C113.272 347.475 112.541 348.016 112.541 349.097C112.541 349.568 112.706 350.008 113.036 350.419C113.367 350.819 113.767 351.18 114.238 351.5C114.708 351.81 115.179 352.131 115.649 352.461C116.12 352.791 116.52 353.187 116.851 353.647C117.181 354.108 117.346 354.608 117.346 355.149C117.346 356.06 117.041 356.751 116.43 357.221C115.819 357.682 114.973 357.912 113.892 357.912C112.821 357.912 111.905 357.637 111.144 357.086L111.505 356.546C112.225 357.016 113.016 357.252 113.877 357.252C114.738 357.252 115.399 357.081 115.859 356.741C116.32 356.391 116.55 355.89 116.55 355.239C116.55 354.789 116.385 354.363 116.055 353.963C115.724 353.552 115.324 353.187 114.853 352.866C114.383 352.536 113.912 352.201 113.442 351.86C112.971 351.52 112.571 351.114 112.24 350.644C111.91 350.173 111.745 349.668 111.745 349.127C111.745 348.416 112.005 347.856 112.526 347.445C113.056 347.025 113.767 346.815 114.658 346.815C115.559 346.815 116.395 346.995 117.166 347.355L116.911 347.941Z" fill="white" fill-opacity="0.9"/>
<path d="M37.0673 367.826V337.845H128.226V367.826H37.0673Z" stroke="white" stroke-opacity="0.25" stroke-width="0.312858" stroke-miterlimit="10"/>
<path d="M250.773 262.159C250.773 262.678 250.353 263.098 249.835 263.098H33.068C32.5496 263.098 32.1294 262.678 32.1294 262.159V33.5386C32.1294 33.0203 32.5496 32.6001 33.068 32.6001H249.835C250.353 32.6001 250.773 33.0203 250.773 33.5386V262.159Z" fill="#1A1A1D"/>
<path d="M221.232 261.785C221.515 262.401 221.061 263.098 220.383 263.098H33.0666C32.5483 263.098 32.1281 262.678 32.1281 262.159V189.441C32.1281 188.907 32.5741 188.48 33.1082 188.505C74.1259 190.411 115.032 197.404 155.057 210.236C171.074 215.361 187.235 221.612 201.116 234.115C209.013 241.231 216.129 250.694 221.232 261.785Z" fill="#C3073F"/>
<path d="M209.323 101.091C209.323 118.307 195.367 132.263 178.15 132.263C160.936 132.263 146.979 118.307 146.979 101.091C146.979 83.8745 160.936 69.9182 178.15 69.9182C195.367 69.9182 209.323 83.8745 209.323 101.091Z" fill="white" fill-opacity="0.9"/>
<path d="M126.871 101.251H112.551C111.436 101.251 110.532 100.022 110.532 98.5062C110.532 96.9888 111.436 95.7599 112.551 95.7599H115.831C116.886 95.7599 117.828 94.7115 117.928 93.2837C118.042 91.6465 117.098 90.2688 115.918 90.2688H75.0737C74.0187 90.2688 73.0756 91.3173 72.9768 92.745C72.8609 94.3822 73.8053 95.7599 74.9854 95.7599H87.2387C88.3543 95.7599 89.2579 96.9888 89.2579 98.5062C89.2579 100.022 88.3543 101.251 87.2387 101.251H86.1139C85.0588 101.251 84.1171 102.3 84.017 103.727C83.9024 105.364 84.8468 106.742 86.0269 106.742H126.958C128.14 106.742 129.084 105.364 128.969 103.727C128.869 102.3 127.926 101.251 126.871 101.251Z" fill="#28282D"/>
<path d="M99.1993 152.842H89.2549C88.4804 152.842 87.8522 151.989 87.8522 150.935C87.8522 149.881 88.4804 149.028 89.2549 149.028H91.5322C92.2646 149.028 92.9192 148.301 92.989 147.309C93.0693 146.172 92.4134 145.215 91.5928 145.215H63.2271C62.4948 145.215 61.8401 145.943 61.7703 146.935C61.69 148.072 62.3472 149.028 63.1678 149.028H71.6765C72.4496 149.028 73.0779 149.881 73.0779 150.935C73.0779 151.989 72.4496 152.842 71.6765 152.842H70.8954C70.1618 152.842 69.5072 153.571 69.4374 154.561C69.3583 155.699 70.0143 156.655 70.8348 156.655H99.2598C100.08 156.655 100.736 155.699 100.656 154.561C100.588 153.571 99.9329 152.842 99.1993 152.842Z" fill="#28282D"/>
<path d="M190.093 167.766H175.773C174.658 167.766 173.754 166.537 173.754 165.021C173.754 163.504 174.658 162.275 175.773 162.275H179.053C180.108 162.275 181.05 161.227 181.15 159.799C181.264 158.162 180.32 156.784 179.14 156.784H138.296C137.241 156.784 136.298 157.832 136.199 159.26C136.083 160.897 137.027 162.275 138.207 162.275H150.461C151.576 162.275 152.48 163.504 152.48 165.021C152.48 166.537 151.576 167.766 150.461 167.766H149.336C148.281 167.766 147.339 168.815 147.239 170.242C147.124 171.88 148.069 173.257 149.249 173.257H190.18C191.362 173.257 192.306 171.88 192.191 170.242C192.091 168.815 191.148 167.766 190.093 167.766Z" fill="#28282D"/>
</svg>
