<svg width="282" height="399" viewBox="0 0 282 399" fill="none" xmlns="http://www.w3.org/2000/svg">
<path d="M281.955 397.287C281.955 397.806 281.534 398.226 281.016 398.226H1.3209C0.802538 398.226 0.382324 397.806 0.382324 397.287V0.938574C0.382324 0.420213 0.802538 0 1.3209 0H281.016C281.534 0 281.955 0.420214 281.955 0.938575V397.287Z" fill="white"/>
<path d="M46.1729 351.26C46.1729 352.822 45.6423 354.164 44.5811 355.285C43.5098 356.406 42.1933 356.967 40.6315 356.967C39.0597 356.967 37.7432 356.476 36.682 355.495C35.6108 354.514 35.0752 353.258 35.0752 351.726C35.0752 350.525 35.2754 349.308 35.6759 348.077L36.2766 348.272C35.9161 349.473 35.7359 350.625 35.7359 351.726C35.7359 353.037 36.2065 354.109 37.1475 354.94C38.0886 355.771 39.2399 356.186 40.6015 356.186C41.9631 356.186 43.1244 355.705 44.0855 354.744C45.0366 353.773 45.5121 352.612 45.5121 351.26C45.5121 350.079 45.3319 349.058 44.9715 348.197L45.4821 347.972C45.7023 348.352 45.8725 348.853 45.9927 349.473C46.1128 350.084 46.1729 350.68 46.1729 351.26ZM44.566 344.525C43.4948 345.516 42.1783 346.012 40.6165 346.012C39.0547 346.012 37.7432 345.516 36.682 344.525C35.6108 343.524 35.0752 342.263 35.0752 340.741C35.0752 339.219 35.6108 337.958 36.682 336.957C37.7432 335.955 39.0547 335.455 40.6165 335.455C42.1783 335.455 43.4948 335.955 44.566 336.957C45.6373 337.958 46.1729 339.219 46.1729 340.741C46.1729 342.263 45.6373 343.524 44.566 344.525ZM37.1475 343.985C38.0786 344.816 39.2349 345.231 40.6165 345.231C41.9981 345.231 43.1594 344.816 44.1005 343.985C45.0416 343.144 45.5121 342.062 45.5121 340.741C45.5121 339.409 45.0416 338.328 44.1005 337.497C43.1594 336.656 41.9981 336.236 40.6165 336.236C39.2349 336.236 38.0786 336.656 37.1475 337.497C36.2065 338.328 35.7359 339.409 35.7359 340.741C35.7359 342.072 36.2065 343.154 37.1475 343.985ZM36.9673 331.433L38.2438 331.403H45.9927V332.124H35.1653V331.794L43.3196 324.72C43.8903 324.24 44.3458 323.869 44.6862 323.609C44.2056 323.649 43.655 323.669 43.0343 323.669H35.2554V322.948H46.0828V323.279L37.7783 330.487C37.2076 330.988 36.8272 331.308 36.637 331.448L36.9673 331.433ZM35.8861 317.002V320.636H35.2554V312.647H35.8861V316.281H45.9927V317.002H35.8861ZM42.2684 310.905L45.9927 312.451V313.217L35.1803 308.697V308.277L45.9927 303.741V304.552L42.2684 306.099V310.905ZM36.3817 308.532C36.3917 308.542 36.4518 308.562 36.5619 308.592C36.9924 308.732 37.3578 308.867 37.6581 308.997L41.6527 310.649V306.354L37.6732 308.006C36.9123 308.357 36.4818 308.532 36.3817 308.532ZM46.1729 296.588C46.1729 298.15 45.6423 299.492 44.5811 300.613C43.5098 301.734 42.1933 302.295 40.6315 302.295C39.0597 302.295 37.7432 301.804 36.682 300.823C35.6108 299.842 35.0752 298.586 35.0752 297.054C35.0752 295.853 35.2754 294.636 35.6759 293.405L36.2766 293.6C35.9161 294.801 35.7359 295.953 35.7359 297.054C35.7359 298.365 36.2065 299.437 37.1475 300.268C38.0886 301.099 39.2399 301.514 40.6015 301.514C41.9631 301.514 43.1244 301.034 44.0855 300.072C45.0366 299.101 45.5121 297.94 45.5121 296.588C45.5121 295.407 45.3319 294.386 44.9715 293.525L45.4821 293.3C45.7023 293.68 45.8725 294.181 45.9927 294.801C46.1128 295.412 46.1729 296.008 46.1729 296.588ZM35.8861 288.492V292.127H35.2554V284.137H35.8861V287.772H45.9927V288.492H35.8861ZM45.437 271.335V271.74L37.8383 274.879C37.4179 275.059 37.0474 275.204 36.7271 275.314L37.8684 275.465L45.9927 276.696V277.432L35.1653 275.66V275.239L43.1244 271.891C43.4948 271.72 43.8452 271.585 44.1756 271.485C44.0655 271.455 43.7201 271.3 43.1394 271.02L35.1653 267.28V266.875L45.9927 265.238V265.989L37.8383 267.16C37.3278 267.24 36.9423 267.28 36.682 267.28C36.692 267.29 36.7421 267.315 36.8322 267.355C36.9123 267.385 37.0524 267.445 37.2527 267.536C37.4429 267.616 37.6431 267.701 37.8534 267.791L45.437 271.335ZM45.9927 262.288H35.2554V257.302H35.8861V261.567H39.8356V257.708H40.4513V261.567H45.362V257.137H45.9927V262.288Z" fill="#FF9E97"/>
<path d="M56.0473 368.032H26.0667V245.185H56.0473V368.032Z" stroke="#FF9E97" stroke-width="0.312858" stroke-miterlimit="10"/>
<mask id="mask0" mask-type="alpha" maskUnits="userSpaceOnUse" x="78" y="31" width="178" height="272">
<rect x="78.4229" y="31.6113" width="176.826" height="270.672" fill="#C4C4C4"/>
</mask>
<g mask="url(#mask0)">
<path d="M256.852 303.051H78.4229V32.5992H256.852V303.051Z" fill="#FEDFDD"/>
<path d="M195.901 230.83H182.733V218.325H196.081L195.901 230.83ZM143.593 218.325H154.431V230.83H143.77L143.593 218.325ZM167.378 230.83H156.84V218.325H167.378V230.83ZM169.787 218.325H180.324V230.83H169.787V218.325ZM239.636 199.466V188.132C239.887 195.442 214.294 199.466 214.294 199.466H126.932C126.932 199.466 101.34 195.442 101.59 188.132V199.466V200.702C101.59 212.382 111.148 218.325 122.828 218.325H133.958L133.779 230.83H115.517L117.926 239.843H133.65L132.754 302.722H144.797L143.9 239.843H195.772L194.877 302.722H206.919L206.024 239.843H223.303L225.712 230.83H205.895L205.715 218.325H217.196C229.538 218.325 239.637 211.839 239.637 199.496V199.466H239.636Z" fill="#FF9E97"/>
<path d="M237.357 118.762C237.357 135.736 223.597 149.495 206.623 149.495C189.649 149.495 175.891 135.736 175.891 118.762C175.891 101.788 189.649 88.0291 206.623 88.0291C223.597 88.0291 237.357 101.788 237.357 118.762Z" fill="#FFF5F4"/>
<path d="M155.049 76.1807H140.729C139.613 76.1807 138.71 74.9518 138.71 73.4358C138.71 71.9185 139.613 70.6896 140.729 70.6896H144.007C145.064 70.6896 146.005 69.6411 146.106 68.2134C146.22 66.5762 145.276 65.1984 144.096 65.1984H103.251C102.195 65.1984 101.253 66.2469 101.153 67.6747C101.038 69.3119 101.983 70.6896 103.163 70.6896H115.416C116.532 70.6896 117.435 71.9185 117.435 73.4358C117.435 74.9518 116.532 76.1807 115.416 76.1807H114.291C113.236 76.1807 112.295 77.2292 112.195 78.6569C112.079 80.2941 113.024 81.6719 114.205 81.6719H155.136C156.317 81.6719 157.262 80.2941 157.146 78.6569C157.046 77.2292 156.104 76.1807 155.049 76.1807Z" fill="white"/>
<path d="M155.373 126.17H145.427C144.653 126.17 144.026 125.317 144.026 124.263C144.026 123.21 144.653 122.356 145.427 122.356H147.706C148.437 122.356 149.092 121.629 149.161 120.637C149.242 119.5 148.586 118.543 147.767 118.543H119.399C118.668 118.543 118.014 119.271 117.944 120.263C117.864 121.399 118.521 122.356 119.34 122.356H127.85C128.623 122.356 129.252 123.21 129.252 124.263C129.252 125.317 128.623 126.17 127.85 126.17H127.068C126.335 126.17 125.681 126.898 125.611 127.89C125.532 129.027 126.188 129.984 127.007 129.984H155.434C156.253 129.984 156.909 129.027 156.828 127.89C156.76 126.898 156.107 126.17 155.373 126.17Z" fill="white"/>
</g>
</svg>
