<svg width="282" height="399" viewBox="0 0 282 399" fill="none" xmlns="http://www.w3.org/2000/svg">
<path d="M281.572 397.287C281.572 397.806 281.152 398.226 280.634 398.226H0.938574C0.420213 398.226 0 397.806 0 397.287V0.938574C0 0.420213 0.420214 0 0.938575 0H280.634C281.152 0 281.572 0.420214 281.572 0.938575V397.287Z" fill="#28282D"/>
<path d="M45.7906 351.26C45.7906 352.822 45.26 354.164 44.1987 355.285C43.1275 356.406 41.811 356.967 40.2492 356.967C38.6774 356.967 37.3609 356.476 36.2997 355.495C35.2285 354.514 34.6929 353.258 34.6929 351.726C34.6929 350.525 34.8931 349.308 35.2935 348.077L35.8942 348.272C35.5338 349.473 35.3536 350.625 35.3536 351.726C35.3536 353.037 35.8241 354.109 36.7652 354.94C37.7063 355.771 38.8576 356.186 40.2192 356.186C41.5807 356.186 42.7421 355.705 43.7032 354.744C44.6543 353.773 45.1298 352.612 45.1298 351.26C45.1298 350.079 44.9496 349.058 44.5892 348.197L45.0998 347.972C45.32 348.352 45.4902 348.853 45.6104 349.473C45.7305 350.084 45.7906 350.68 45.7906 351.26ZM44.1837 344.525C43.1125 345.516 41.796 346.012 40.2342 346.012C38.6724 346.012 37.3609 345.516 36.2997 344.525C35.2285 343.524 34.6929 342.263 34.6929 340.741C34.6929 339.219 35.2285 337.958 36.2997 336.957C37.3609 335.955 38.6724 335.455 40.2342 335.455C41.796 335.455 43.1125 335.955 44.1837 336.957C45.2549 337.958 45.7906 339.219 45.7906 340.741C45.7906 342.263 45.2549 343.524 44.1837 344.525ZM36.7652 343.985C37.6963 344.816 38.8526 345.231 40.2342 345.231C41.6158 345.231 42.7771 344.816 43.7182 343.985C44.6593 343.144 45.1298 342.062 45.1298 340.741C45.1298 339.409 44.6593 338.328 43.7182 337.497C42.7771 336.656 41.6158 336.236 40.2342 336.236C38.8526 336.236 37.6963 336.656 36.7652 337.497C35.8241 338.328 35.3536 339.409 35.3536 340.741C35.3536 342.072 35.8241 343.154 36.7652 343.985ZM36.585 331.433L37.8615 331.403H45.6104V332.124H34.783V331.794L42.9373 324.72C43.5079 324.24 43.9635 323.869 44.3039 323.609C43.8233 323.649 43.2727 323.669 42.652 323.669H34.8731V322.948H45.7005V323.279L37.3959 330.487C36.8253 330.988 36.4449 331.308 36.2546 331.448L36.585 331.433ZM35.5038 317.002V320.636H34.8731V312.647H35.5038V316.281H45.6104V317.002H35.5038ZM41.8861 310.905L45.6104 312.451V313.217L34.798 308.697V308.277L45.6104 303.741V304.552L41.8861 306.099V310.905ZM35.9993 308.532C36.0094 308.542 36.0694 308.562 36.1796 308.592C36.61 308.732 36.9755 308.867 37.2758 308.997L41.2704 310.649V306.354L37.2908 308.006C36.53 308.357 36.0995 308.532 35.9993 308.532ZM45.7906 296.588C45.7906 298.15 45.26 299.492 44.1987 300.613C43.1275 301.734 41.811 302.295 40.2492 302.295C38.6774 302.295 37.3609 301.804 36.2997 300.823C35.2285 299.842 34.6929 298.586 34.6929 297.054C34.6929 295.853 34.8931 294.636 35.2935 293.405L35.8942 293.6C35.5338 294.801 35.3536 295.953 35.3536 297.054C35.3536 298.365 35.8241 299.437 36.7652 300.268C37.7063 301.099 38.8576 301.514 40.2192 301.514C41.5807 301.514 42.7421 301.034 43.7032 300.072C44.6543 299.101 45.1298 297.94 45.1298 296.588C45.1298 295.407 44.9496 294.386 44.5892 293.525L45.0998 293.3C45.32 293.68 45.4902 294.181 45.6104 294.801C45.7305 295.412 45.7906 296.008 45.7906 296.588ZM35.5038 288.492V292.127H34.8731V284.137H35.5038V287.772H45.6104V288.492H35.5038ZM45.0547 271.335V271.74L37.456 274.879C37.0355 275.059 36.6651 275.204 36.3447 275.314L37.486 275.465L45.6104 276.696V277.432L34.783 275.66V275.239L42.7421 271.891C43.1125 271.72 43.4629 271.585 43.7933 271.485C43.6831 271.455 43.3377 271.3 42.7571 271.02L34.783 267.28V266.875L45.6104 265.238V265.989L37.456 267.16C36.9454 267.24 36.56 267.28 36.2997 267.28C36.3097 267.29 36.3598 267.315 36.4499 267.355C36.53 267.385 36.6701 267.445 36.8703 267.536C37.0606 267.616 37.2608 267.701 37.471 267.791L45.0547 271.335ZM45.6104 262.288H34.8731V257.302H35.5038V261.567H39.4533V257.708H40.069V261.567H44.9796V257.137H45.6104V262.288Z" fill="white" fill-opacity="0.9"/>
<path d="M55.665 368.032H25.6843V245.185H55.665V368.032Z" stroke="white" stroke-opacity="0.25" stroke-width="0.312858" stroke-miterlimit="10"/>
<mask id="contact-mask" mask-type="alpha" maskUnits="userSpaceOnUse" x="78" y="31" width="177" height="272">
<rect x="78.0405" y="31.6113" width="176.826" height="270.672" fill="#C4C4C4"/>
</mask>
<g mask="url(#contact-mask)">
<path d="M256.469 303.051H78.0405V32.5991H256.469V303.051Z" fill="#1A1A1D"/>
<path d="M195.519 230.83H182.35V218.325H195.698L195.519 230.83ZM143.21 218.325H154.049V230.83H143.388L143.21 218.325ZM166.995 230.83H156.458V218.325H166.995V230.83ZM169.404 218.325H179.941V230.83H169.404V218.325ZM239.253 199.466V188.132C239.505 195.442 213.912 199.466 213.912 199.466H126.55C126.55 199.466 100.958 195.442 101.208 188.132V199.466V200.701C101.208 212.382 110.765 218.325 122.446 218.325H133.575L133.396 230.83H115.134L117.543 239.843H133.267L132.372 302.722H144.414L143.517 239.843H195.39L194.494 302.722H206.537L205.641 239.843H222.921L225.33 230.83H205.512L205.333 218.325H216.813C229.156 218.325 239.255 211.839 239.255 199.496V199.466H239.253Z" fill="#C3073F"/>
<path d="M236.975 118.762C236.975 135.736 223.215 149.495 206.241 149.495C189.267 149.495 175.508 135.736 175.508 118.762C175.508 101.788 189.267 88.029 206.241 88.029C223.215 88.029 236.975 101.788 236.975 118.762Z" fill="white" fill-opacity="0.9"/>
<path d="M154.667 76.1807H140.347C139.231 76.1807 138.328 74.9518 138.328 73.4358C138.328 71.9184 139.231 70.6895 140.347 70.6895H143.625C144.681 70.6895 145.623 69.6411 145.723 68.2133C145.838 66.5761 144.893 65.1984 143.713 65.1984H102.869C101.813 65.1984 100.871 66.2468 100.771 67.6746C100.656 69.3118 101.6 70.6895 102.781 70.6895H115.034C116.15 70.6895 117.053 71.9184 117.053 73.4358C117.053 74.9518 116.15 76.1807 115.034 76.1807H113.909C112.854 76.1807 111.912 77.2291 111.812 78.6569C111.696 80.2941 112.642 81.6718 113.822 81.6718H154.754C155.935 81.6718 156.879 80.2941 156.763 78.6569C156.663 77.2291 155.722 76.1807 154.667 76.1807Z" fill="#28282D"/>
<path d="M154.991 126.17H145.045C144.271 126.17 143.644 125.316 143.644 124.263C143.644 123.21 144.271 122.356 145.045 122.356H147.324C148.055 122.356 148.709 121.628 148.779 120.637C148.859 119.5 148.203 118.542 147.384 118.542H119.017C118.286 118.542 117.631 119.271 117.562 120.263C117.481 121.399 118.138 122.356 118.958 122.356H127.468C128.241 122.356 128.869 123.21 128.869 124.263C128.869 125.316 128.241 126.17 127.468 126.17H126.685C125.953 126.17 125.298 126.898 125.229 127.89C125.15 129.027 125.806 129.984 126.625 129.984H155.051C155.871 129.984 156.526 129.027 156.446 127.89C156.378 126.898 155.724 126.17 154.991 126.17Z" fill="#28282D"/>
</g>
</svg>
