<svg width="282" height="399" viewBox="0 0 282 399" fill="none" xmlns="http://www.w3.org/2000/svg">
<path d="M281.572 398.224H0V0H281.572V398.224Z" fill="#28282D"/>
<path d="M47.1567 357.732V347.055C47.9877 346.975 48.7936 346.935 49.5745 346.935C50.6257 346.935 51.4666 347.18 52.0974 347.671C52.7381 348.161 53.0585 348.902 53.0585 349.893C53.0585 350.874 52.623 351.685 51.752 352.326C50.891 352.957 49.8598 353.272 48.6584 353.272C48.6084 353.272 48.5533 353.272 48.4932 353.272V352.776C48.5333 352.776 48.5683 352.776 48.5984 352.776C49.5895 352.776 50.4505 352.516 51.1813 351.995C51.9122 351.475 52.2776 350.799 52.2776 349.968C52.2776 349.127 52.0223 348.522 51.5117 348.151C51.0011 347.771 50.3153 347.58 49.4543 347.58C49.0038 347.58 48.4782 347.6 47.8775 347.641V357.732H47.1567ZM55.8825 357.732V347.04C56.8336 346.97 57.6295 346.935 58.2703 346.935C59.2914 346.935 60.1324 347.2 60.7931 347.731C61.4539 348.251 61.7843 348.992 61.7843 349.953C61.7843 350.604 61.5941 351.21 61.2136 351.77C60.8332 352.331 60.4077 352.776 59.9372 353.107C60.3076 353.617 60.7631 354.228 61.3037 354.939C61.8544 355.64 62.2098 356.08 62.3699 356.26C62.9806 356.911 63.6714 357.282 64.4423 357.372L64.4273 357.852C63.8166 357.842 63.321 357.752 62.9406 357.582C62.5602 357.402 62.1947 357.131 61.8443 356.771C61.504 356.411 60.648 355.289 59.2764 353.407C58.2953 353.407 57.4043 353.377 56.6033 353.317V357.732H55.8825ZM58.8409 352.806C59.2814 352.806 59.7519 352.516 60.2525 351.935C60.7531 351.355 61.0034 350.684 61.0034 349.923C61.0034 349.152 60.7431 348.572 60.2225 348.181C59.7119 347.781 59.0311 347.58 58.1802 347.58C57.7296 347.58 57.204 347.6 56.6033 347.641V352.731C57.4043 352.781 58.1501 352.806 58.8409 352.806ZM66.6229 356.305C65.6317 355.234 65.1362 353.918 65.1362 352.356C65.1362 350.794 65.6317 349.483 66.6229 348.421C67.624 347.35 68.8855 346.815 70.4072 346.815C71.9289 346.815 73.1904 347.35 74.1915 348.421C75.1927 349.483 75.6932 350.794 75.6932 352.356C75.6932 353.918 75.1927 355.234 74.1915 356.305C73.1904 357.377 71.9289 357.912 70.4072 357.912C68.8855 357.912 67.624 357.377 66.6229 356.305ZM67.1635 348.887C66.3325 349.818 65.9171 350.974 65.9171 352.356C65.9171 353.737 66.3325 354.899 67.1635 355.84C68.0044 356.781 69.0857 357.252 70.4072 357.252C71.7387 357.252 72.82 356.781 73.6509 355.84C74.4919 354.899 74.9124 353.737 74.9124 352.356C74.9124 350.974 74.4919 349.818 73.6509 348.887C72.82 347.946 71.7387 347.475 70.4072 347.475C69.0757 347.475 67.9944 347.946 67.1635 348.887ZM79.0243 356.531V346.995H79.7451V356.05C79.7451 357.392 79.4648 358.463 78.9041 359.264C78.6238 359.674 78.3385 360.015 78.0481 360.285C77.7578 360.565 77.4024 360.856 76.9819 361.156L76.6666 360.69C78.2384 359.539 79.0243 358.153 79.0243 356.531ZM83.7025 357.732V346.995H88.6882V347.625H84.4233V351.575H88.2827V352.191H84.4233V357.101H88.8534V357.732H83.7025ZM96.8148 357.912C95.253 357.912 93.9115 357.382 92.7902 356.32C91.6689 355.249 91.1083 353.933 91.1083 352.371C91.1083 350.799 91.5988 349.483 92.58 348.421C93.5611 347.35 94.8175 346.815 96.3493 346.815C97.5507 346.815 98.767 347.015 99.9985 347.415L99.8032 348.016C98.6019 347.656 97.4505 347.475 96.3493 347.475C95.0378 347.475 93.9666 347.946 93.1356 348.887C92.3047 349.828 91.8892 350.979 91.8892 352.341C91.8892 353.702 92.3697 354.864 93.3308 355.825C94.3019 356.776 95.4633 357.252 96.8148 357.252C97.9962 357.252 99.0173 357.071 99.8783 356.711L100.104 357.221C99.7231 357.442 99.2226 357.612 98.6019 357.732C97.9912 357.852 97.3955 357.912 96.8148 357.912ZM104.911 347.625H101.277V346.995H109.266V347.625H105.632V357.732H104.911V347.625ZM116.221 347.941C115.491 347.63 114.765 347.475 114.044 347.475C112.582 347.475 111.851 348.016 111.851 349.097C111.851 349.568 112.017 350.008 112.347 350.419C112.677 350.819 113.078 351.18 113.548 351.5C114.019 351.81 114.489 352.131 114.96 352.461C115.43 352.791 115.831 353.187 116.161 353.647C116.492 354.108 116.657 354.608 116.657 355.149C116.657 356.06 116.352 356.751 115.741 357.221C115.13 357.682 114.284 357.912 113.203 357.912C112.132 357.912 111.216 357.637 110.455 357.086L110.815 356.546C111.536 357.016 112.327 357.252 113.188 357.252C114.049 357.252 114.71 357.081 115.17 356.741C115.631 356.391 115.861 355.89 115.861 355.239C115.861 354.789 115.696 354.363 115.365 353.963C115.035 353.552 114.635 353.187 114.164 352.866C113.693 352.536 113.223 352.201 112.752 351.86C112.282 351.52 111.881 351.114 111.551 350.644C111.221 350.173 111.055 349.668 111.055 349.127C111.055 348.416 111.316 347.856 111.836 347.445C112.367 347.025 113.078 346.815 113.969 346.815C114.87 346.815 115.706 346.995 116.477 347.355L116.221 347.941Z" fill="white" fill-opacity="0.9"/>
<path d="M36.3779 367.826V337.845H127.537V367.826H36.3779Z" stroke="white" stroke-opacity="0.25" stroke-width="0.312858" stroke-miterlimit="10"/>
<path d="M250.084 262.159C250.084 262.678 249.664 263.098 249.145 263.098H32.3786C31.8603 263.098 31.4401 262.678 31.4401 262.159V33.5386C31.4401 33.0203 31.8603 32.6001 32.3786 32.6001H249.145C249.664 32.6001 250.084 33.0203 250.084 33.5386V262.159Z" fill="#1A1A1D"/>
<path d="M220.542 261.785C220.826 262.401 220.372 263.098 219.694 263.098H32.3773C31.8589 263.098 31.4387 262.678 31.4387 262.159V189.441C31.4387 188.907 31.8847 188.48 32.4189 188.505C73.4365 190.411 114.343 197.404 154.368 210.236C170.384 215.361 186.545 221.612 200.427 234.115C208.324 241.231 215.439 250.694 220.542 261.785Z" fill="#C3073F"/>
<path d="M208.634 101.091C208.634 118.307 194.677 132.263 177.461 132.263C160.246 132.263 146.29 118.307 146.29 101.091C146.29 83.8745 160.246 69.9182 177.461 69.9182C194.677 69.9182 208.634 83.8745 208.634 101.091Z" fill="white" fill-opacity="0.9"/>
<path d="M126.182 101.251H111.862C110.746 101.251 109.843 100.022 109.843 98.5062C109.843 96.9888 110.746 95.7599 111.862 95.7599H115.142C116.197 95.7599 117.138 94.7115 117.239 93.2837C117.353 91.6465 116.409 90.2688 115.229 90.2688H74.3843C73.3293 90.2688 72.3863 91.3173 72.2875 92.745C72.1716 94.3822 73.1159 95.7599 74.2961 95.7599H86.5494C87.665 95.7599 88.5685 96.9888 88.5685 98.5062C88.5685 100.022 87.665 101.251 86.5494 101.251H85.4245C84.3695 101.251 83.4278 102.3 83.3277 103.727C83.2131 105.364 84.1575 106.742 85.3376 106.742H126.269C127.45 106.742 128.395 105.364 128.28 103.727C128.18 102.3 127.237 101.251 126.182 101.251Z" fill="#28282D"/>
<path d="M98.5099 152.842H88.5656C87.7911 152.842 87.1628 151.989 87.1628 150.935C87.1628 149.881 87.7911 149.028 88.5656 149.028H90.8429C91.5752 149.028 92.2298 148.301 92.2997 147.309C92.38 146.172 91.7241 145.215 90.9035 145.215H62.5377C61.8054 145.215 61.1508 145.943 61.081 146.935C61.0007 148.072 61.6579 149.028 62.4785 149.028H70.9871C71.7603 149.028 72.3886 149.881 72.3886 150.935C72.3886 151.989 71.7603 152.842 70.9871 152.842H70.2061C69.4724 152.842 68.8178 153.571 68.748 154.561C68.669 155.699 69.3249 156.655 70.1455 156.655H98.5705C99.3911 156.655 100.047 155.699 99.9667 154.561C99.8982 153.571 99.2436 152.842 98.5099 152.842Z" fill="#28282D"/>
<path d="M189.404 167.766H175.084C173.969 167.766 173.065 166.537 173.065 165.021C173.065 163.504 173.969 162.275 175.084 162.275H178.364C179.419 162.275 180.361 161.227 180.461 159.799C180.575 158.162 179.631 156.784 178.451 156.784H137.607C136.551 156.784 135.608 157.832 135.51 159.26C135.394 160.897 136.338 162.275 137.518 162.275H149.772C150.887 162.275 151.791 163.504 151.791 165.021C151.791 166.537 150.887 167.766 149.772 167.766H148.647C147.592 167.766 146.65 168.815 146.55 170.242C146.435 171.88 147.38 173.257 148.56 173.257H189.491C190.672 173.257 191.617 171.88 191.502 170.242C191.402 168.815 190.459 167.766 189.404 167.766Z" fill="#28282D"/>
</svg>
